<svg width="1720" height="992" viewBox="0 0 1720 992" fill="none" xmlns="http://www.w3.org/2000/svg">
<rect width="1720" height="992" rx="20" fill="#FFFAFA"/>
<mask id="mask0_1_1517" style="mask-type:alpha" maskUnits="userSpaceOnUse" x="0" y="0" width="1720" height="992">
<rect width="1720" height="992" rx="20" fill="#FFFAFA"/>
</mask>
<g mask="url(#mask0_1_1517)">
<g opacity="0.5" filter="url(#filter0_f_1_1517)">
<ellipse cx="1180.5" cy="294.5" rx="320.5" ry="281.5" fill="#D2FFF7"/>
</g>
<g opacity="0.5" filter="url(#filter1_f_1_1517)">
<ellipse cx="1194.5" cy="567.5" rx="295.5" ry="289.5" fill="#FFD5E9"/>
</g>
<circle cx="1061" cy="488" r="56" fill="#FFDBEC"/>
<circle cx="1188" cy="94" r="56" fill="#BEF3EA"/>
<path d="M-438.367 229.401C-447.661 302.174 -397.733 410.539 -123.671 261.813C218.908 75.9063 366.284 260.362 377.52 506.56C386.509 703.519 479.075 671.448 524.234 630.793" stroke="white" stroke-width="4"/>
<path d="M1382.23 592.521C1354.73 555.897 1311.5 470.233 1358.51 420.575C1417.26 358.503 1696.6 343.11 1560.13 27.7946" stroke="white" stroke-width="3"/>
</g>
<defs>
<filter id="filter0_f_1_1517" x="660" y="-187" width="1041" height="963" filterUnits="userSpaceOnUse" color-interpolation-filters="sRGB">
<feFlood flood-opacity="0" result="BackgroundImageFix"/>
<feBlend mode="normal" in="SourceGraphic" in2="BackgroundImageFix" result="shape"/>
<feGaussianBlur stdDeviation="100" result="effect1_foregroundBlur_1_1517"/>
</filter>
<filter id="filter1_f_1_1517" x="699" y="78" width="991" height="979" filterUnits="userSpaceOnUse" color-interpolation-filters="sRGB">
<feFlood flood-opacity="0" result="BackgroundImageFix"/>
<feBlend mode="normal" in="SourceGraphic" in2="BackgroundImageFix" result="shape"/>
<feGaussianBlur stdDeviation="100" result="effect1_foregroundBlur_1_1517"/>
</filter>
</defs>
</svg>
