<svg width="203" height="203" viewBox="0 0 203 203" fill="none" xmlns="http://www.w3.org/2000/svg">
<path d="M111.095 86.2806L100.095 74.9985L89.0947 86.2806M100.095 76.5655L100.095 124.999" stroke="#242F65" stroke-width="1.5" stroke-linecap="round" stroke-linejoin="round"/>
<path d="M125.982 7.78489L125.559 9.88417L121.911 9.14171L119.645 20.2261L116.992 19.6796L119.258 8.59526L115.634 7.85408L116.057 5.7548L125.982 7.78489Z" fill="#242F65"/>
<path d="M144.231 14.5009L138.997 26.9054L136.49 25.8661L138.765 20.48L133.448 18.2422L131.151 23.6032L128.668 22.5652L133.902 10.1607L136.385 11.1987L134.274 16.2121L139.591 18.4499L141.702 13.4365L144.231 14.5009Z" fill="#242F65"/>
<path d="M153.063 32.5892L148.63 29.4925L146.291 31.156L143.959 29.53L155.713 21.5014L158.23 23.2565L154.603 36.9624L152.271 35.3363L153.063 32.5892ZM153.653 30.4988L155.302 24.7218L150.398 28.2276L153.653 30.4988Z" fill="#242F65"/>
<path d="M166.506 49.0623L164.672 47.0813L167.32 36.4703L160.572 42.6673L158.738 40.6863L168.657 31.5827L170.492 33.5636L167.792 44.2435L174.59 38.0014L176.424 39.9824L166.506 49.0623Z" fill="#242F65"/>
<path d="M178.983 55.3527L176.022 63.7537L174.351 60.9471L177.092 53.5355L171.776 56.6857L170.391 54.371L181.987 47.5022L183.373 49.8169L178.156 52.9008L185.923 54.1008L187.594 56.8837L178.983 55.3527Z" fill="#242F65"/>
<path d="M182.933 76.5191C182.269 76.3884 181.664 76.0701 181.092 75.5629C180.52 75.0557 180.079 74.3408 179.769 73.4184C179.434 72.5185 179.311 71.6775 179.355 70.8455C179.4 70.0134 179.653 69.3117 180.069 68.6901C180.485 68.0686 181.086 67.5761 181.823 67.2338L182.805 69.9324C182.313 70.1684 181.958 70.531 181.741 71.0201C181.523 71.5092 181.519 72.0334 181.728 72.6167C181.915 73.1511 182.208 73.5005 182.581 73.6872C182.954 73.874 183.385 73.873 183.824 73.7295C184.215 73.5834 184.514 73.3609 184.675 73.0357C184.86 72.7118 184.95 72.359 184.996 71.9562C185.017 71.552 185.046 71.0053 185.01 70.3358C184.985 69.4524 185.024 68.7154 185.104 68.1236C185.183 67.5319 185.405 66.9715 185.768 66.4425C186.131 65.9135 186.703 65.5148 187.509 65.2239C188.608 64.8294 189.608 64.9303 190.513 65.4791C191.418 66.0279 192.11 66.9707 192.592 68.2598C193.072 69.5966 193.129 70.7678 192.787 71.7986C192.445 72.8293 191.734 73.5783 190.678 74.0704L189.698 71.3481C190.117 71.1082 190.446 70.7919 190.612 70.3716C190.802 69.9526 190.779 69.4746 190.592 68.9402C190.425 68.4783 190.156 68.1302 189.807 67.9448C189.459 67.7355 189.052 67.7377 188.588 67.9037C188.222 68.0273 187.947 68.2511 187.786 68.5763C187.626 68.8777 187.512 69.2292 187.49 69.6333C187.469 70.0375 187.441 70.5605 187.478 71.2062C187.478 72.1121 187.461 72.8741 187.381 73.4896C187.325 74.0827 187.102 74.6669 186.715 75.1946C186.352 75.7236 185.755 76.1448 184.925 76.4344C184.246 76.589 183.597 76.6498 182.933 76.5191Z" fill="#242F65"/>
<path d="M198.249 99.6718L196.111 99.7964L195.789 94.1529L192.185 94.3665L192.448 98.8863L190.381 99.0147L190.119 94.4949L184.449 94.8369L184.281 92.1579L197.756 91.373L198.249 99.6718Z" fill="#242F65"/>
<path d="M195.932 118.001C195.189 118.915 194.268 119.581 193.12 119.997C191.972 120.412 190.77 120.515 189.463 120.326C188.157 120.114 187.032 119.649 186.066 118.906C185.1 118.163 184.431 117.222 184.011 116.127C183.59 115.031 183.485 113.858 183.671 112.604C183.88 111.375 184.346 110.28 185.089 109.366C185.832 108.452 186.777 107.787 187.901 107.37C189.049 106.954 190.251 106.851 191.581 107.065C192.887 107.277 194.012 107.742 194.978 108.485C195.92 109.227 196.614 110.146 197.033 111.265C197.454 112.36 197.559 113.534 197.372 114.787C197.186 116.041 196.651 117.085 195.932 118.001ZM194.657 112.259C194.404 111.625 193.954 111.077 193.355 110.64C192.755 110.203 192.004 109.924 191.125 109.782C190.247 109.64 189.454 109.693 188.723 109.917C188.017 110.141 187.422 110.515 186.986 111.064C186.551 111.589 186.252 112.264 186.14 113.021C186.027 113.778 186.085 114.497 186.337 115.154C186.59 115.811 187.041 116.335 187.64 116.773C188.24 117.21 188.991 117.488 189.869 117.63C190.748 117.772 191.541 117.719 192.271 117.496C192.978 117.271 193.574 116.874 194.009 116.349C194.444 115.823 194.743 115.148 194.855 114.391C194.992 113.612 194.935 112.893 194.657 112.259Z" fill="#242F65"/>
<path d="M178.674 131.816L184.697 130.683L185.115 129.584L180.182 127.772L181.107 125.247L193.766 129.902L191.978 134.718C191.42 136.19 190.65 137.174 189.665 137.67C188.657 138.165 187.578 138.203 186.403 137.782C185.44 137.421 184.751 136.86 184.289 136.096C183.827 135.333 183.685 134.396 183.838 133.331L177.615 134.621L178.674 131.816ZM186.853 130.225L186.095 132.307C185.563 133.756 185.944 134.706 187.212 135.179C187.822 135.402 188.373 135.408 188.84 135.17C189.308 134.933 189.693 134.453 189.947 133.727L190.704 131.646L186.853 130.225Z" fill="#242F65"/>
<path d="M166.623 155.326C166.369 154.692 166.309 154.022 166.445 153.266C166.581 152.51 166.932 151.766 167.524 150.987C168.092 150.231 168.745 149.645 169.461 149.254C170.176 148.863 170.905 148.664 171.671 148.657C172.437 148.674 173.143 148.902 173.839 149.321L172.114 151.589C171.627 151.301 171.153 151.204 170.621 151.295C170.113 151.387 169.667 151.673 169.282 152.153C168.948 152.589 168.804 153.034 168.855 153.442C168.905 153.85 169.125 154.219 169.517 154.502C169.838 154.758 170.191 154.872 170.576 154.845C170.937 154.816 171.301 154.716 171.647 154.52C171.993 154.324 172.463 154.039 173.033 153.664C173.755 153.154 174.397 152.783 174.938 152.526C175.478 152.269 176.083 152.158 176.729 152.168C177.375 152.179 178.031 152.452 178.698 152.964C179.619 153.657 180.099 154.541 180.138 155.616C180.176 156.691 179.76 157.765 178.936 158.842C178.086 159.965 177.114 160.676 176.047 160.929C174.98 161.182 173.96 161.009 172.986 160.409L174.737 158.094C175.18 158.332 175.607 158.402 176.066 158.331C176.525 158.26 176.922 157.996 177.257 157.537C177.566 157.148 177.706 156.75 177.68 156.343C177.654 155.937 177.457 155.592 177.042 155.284C176.719 155.052 176.39 154.94 176.053 154.969C175.692 154.998 175.352 155.099 175.006 155.295C174.66 155.491 174.215 155.754 173.669 156.13C172.899 156.637 172.257 157.008 171.715 157.289C171.175 157.547 170.569 157.681 169.923 157.671C169.277 157.66 168.597 157.386 167.906 156.872C167.28 156.481 166.877 155.959 166.623 155.326Z" fill="#242F65"/>
<path d="M161.184 175.18C159.791 175.249 158.448 174.843 157.202 173.966L159.335 172.125C160.035 172.472 160.77 172.607 161.493 172.526C162.239 172.447 162.928 172.102 163.581 171.54C164.109 171.068 164.497 170.516 164.675 169.882C164.852 169.248 164.865 168.557 164.687 167.856C164.485 167.154 164.09 166.466 163.503 165.791C162.916 165.14 162.295 164.654 161.616 164.355C160.938 164.057 160.272 163.974 159.595 164.081C158.919 164.188 158.33 164.467 157.778 164.938C157.125 165.499 156.708 166.144 156.525 166.874C156.343 167.603 156.376 168.32 156.624 169.072L154.489 170.937C153.771 169.588 153.556 168.218 153.821 166.849C154.085 165.48 154.846 164.234 156.126 163.133C157.105 162.28 158.138 161.762 159.275 161.561C160.411 161.359 161.507 161.465 162.61 161.881C163.712 162.321 164.705 163.018 165.562 164.017C166.442 165.017 167.031 166.098 167.306 167.233C167.581 168.368 167.545 169.487 167.177 170.564C166.808 171.641 166.158 172.607 165.179 173.461C163.925 174.515 162.577 175.111 161.184 175.18Z" fill="#242F65"/>
<path d="M140.068 174.199L145.389 177.248L146.427 176.659L143.844 172.088L146.189 170.782L152.797 182.505L148.305 185.008C146.948 185.77 145.713 186.014 144.625 185.766C143.537 185.517 142.687 184.828 142.074 183.747C141.571 182.862 141.402 181.97 141.569 181.097C141.735 180.224 142.209 179.415 143.037 178.696L137.452 175.657L140.068 174.199ZM147.346 178.282L145.42 179.371C144.088 180.111 143.724 181.093 144.404 182.273C144.733 182.839 145.145 183.195 145.641 183.317C146.138 183.438 146.742 183.327 147.434 182.935L149.383 181.847L147.346 178.282Z" fill="#242F65"/>
<path d="M126.562 193.101C125.402 192.848 124.402 192.295 123.511 191.484C122.62 190.674 122.006 189.616 121.618 188.356C121.23 187.096 121.151 185.875 121.406 184.697C121.66 183.519 122.193 182.498 123.005 181.635C123.818 180.773 124.832 180.159 126.025 179.793C127.242 179.429 128.418 179.372 129.578 179.625C130.738 179.877 131.738 180.431 132.628 181.265C133.517 182.099 134.133 183.133 134.543 184.419C134.954 185.704 135.01 186.899 134.756 188.077C134.501 189.256 133.968 190.277 133.156 191.139C132.344 192.002 131.353 192.617 130.136 192.981C128.897 193.321 127.721 193.377 126.562 193.101ZM131.21 189.462C131.669 188.938 131.965 188.31 132.1 187.579C132.235 186.847 132.157 186.056 131.891 185.207C131.625 184.359 131.231 183.67 130.709 183.118C130.186 182.589 129.583 182.224 128.921 182.069C128.235 181.913 127.539 181.948 126.784 182.17C126.03 182.392 125.412 182.765 124.953 183.288C124.494 183.812 124.197 184.44 124.062 185.172C123.928 185.904 124.005 186.695 124.271 187.543C124.538 188.392 124.932 189.081 125.453 189.633C125.976 190.161 126.579 190.527 127.265 190.683C127.952 190.839 128.648 190.804 129.426 190.583C130.134 190.335 130.728 189.961 131.21 189.462Z" fill="#242F65"/>
<path d="M110.99 185.121L106.488 185.573L106.285 183.535L113.485 182.798L114.88 196.175L112.207 196.462L110.99 185.121Z" fill="#242F65"/>
<path d="M97.5356 185.501L92.9986 185.259L93.1074 183.215L100.318 183.622L99.579 197.053L96.8807 196.909L97.5356 185.501Z" fill="#242F65"/>
<path d="M82.0634 195L84.6092 181.809L87.2647 182.308L84.7176 195.523L82.0634 195Z" fill="#242F65"/>
<path d="M67.2744 176.358L69.8103 177.303L72.2838 187.973L75.4703 179.393L78.0062 180.338L73.3127 192.938L70.7755 192.017L68.3297 181.278L65.1155 189.927L62.5796 188.982L67.2744 176.358Z" fill="#242F65"/>
<path d="M45.9149 178.153C45.4553 176.889 45.4759 175.603 45.9765 174.294L48.3375 175.826C48.2305 176.488 48.317 177.113 48.5945 177.747C48.8733 178.358 49.3482 178.884 50.0192 179.325C50.6676 179.741 51.35 179.968 52.0424 180.005C52.7349 180.042 53.4149 179.863 54.0573 179.492C54.6996 179.121 55.2566 178.555 55.7508 177.818C56.5317 176.644 56.8073 175.514 56.6016 174.431C56.3958 173.347 55.7489 172.454 54.6368 171.751C53.8264 171.231 52.9756 171.019 52.0845 171.115C51.1934 171.21 50.38 171.644 49.6471 172.368L53.4657 174.86L52.3981 176.472L46.6809 172.758L48.1131 170.594C48.7694 169.961 49.5136 169.476 50.3935 169.141C51.2734 168.807 52.2122 168.714 53.2126 168.815C54.213 168.916 55.1982 169.302 56.1708 169.926C57.2815 170.652 58.0969 171.53 58.6408 172.56C59.1846 173.591 59.3891 174.698 59.2793 175.86C59.1696 177.023 58.7494 178.169 58.0201 179.274C57.2895 180.403 56.4069 181.238 55.3711 181.803C54.3353 182.368 53.2443 182.62 52.0742 182.558C50.9042 182.495 49.7757 182.101 48.6649 181.375C47.2991 180.492 46.3744 179.417 45.9149 178.153Z" fill="#242F65"/>
<path d="M33.7302 169.973L40.5507 163.303L42.2154 164.869L35.8962 172.019L33.7302 169.973ZM41.49 161.851L43.4186 159.808L45.5156 161.803L43.5882 163.822L41.49 161.851Z" fill="#242F65"/>
<path d="M22.1691 153.67C22.1922 152.336 22.6639 151.121 23.5818 150.074L25.2563 152.356C24.9143 152.934 24.7846 153.571 24.8208 154.24C24.8809 154.911 25.1333 155.568 25.6019 156.213C26.0717 156.834 26.622 157.292 27.2541 157.564C27.8862 157.836 28.5761 157.921 29.3014 157.792C30.0266 157.664 30.7619 157.346 31.4848 156.812C32.6313 155.967 33.2801 155.024 33.4816 153.938C33.6592 152.851 33.3793 151.811 32.5979 150.744C32.0163 149.974 31.3013 149.459 30.4266 149.246C29.552 149.032 28.637 149.127 27.703 149.578L30.4052 153.25L28.8363 154.382L24.7937 148.898L26.8869 147.365C27.7202 147.004 28.5925 146.812 29.5502 146.815C30.484 146.817 31.4052 147.057 32.2911 147.509C33.177 147.962 33.9773 148.672 34.6708 149.591C35.4522 150.658 35.9206 151.755 36.0496 152.93C36.1799 154.082 36.0011 155.193 35.4892 156.262C34.9773 157.331 34.1864 158.243 33.1154 159.02C32.0443 159.798 30.9168 160.286 29.7341 160.462C28.5765 160.615 27.458 160.484 26.381 160.021C25.3041 159.558 24.3869 158.794 23.6055 157.728C22.6496 156.342 22.1687 155.029 22.1691 153.67Z" fill="#242F65"/>
<path d="M16.4539 141.374L19.6216 139.898L17.6009 135.571L19.4675 134.693L21.4882 139.02L24.7778 137.502L22.521 132.662L24.4845 131.765L27.8816 139.026L15.6308 144.692L12.2349 137.407L14.1745 136.509L16.4539 141.374Z" fill="#242F65"/>
<path d="M7.0012 120.558L9.06634 120.001L10.0253 123.58L21.0033 120.683L21.7037 123.272L10.7257 126.168L11.6847 129.748L9.61956 130.305L7.0012 120.558Z" fill="#242F65"/>
<path d="M5.09253 100.169L18.602 100.101L18.6262 102.797L5.11674 102.865L5.09253 100.169Z" fill="#242F65"/>
<path d="M20.5625 82.1591L20.1342 84.8064L10.1247 89.3041L19.1946 90.7641L18.7664 93.4115L5.42228 91.271L5.8505 88.6237L15.9317 84.1298L6.79014 82.6659L7.21836 80.0186L20.5625 82.1591Z" fill="#242F65"/>
<path d="M17.4115 53.621L19.3253 54.5572L17.6639 57.878L27.8374 62.9013L26.6312 65.3165L16.4578 60.2932L14.7977 63.5902L12.8839 62.6539L17.4115 53.621Z" fill="#242F65"/>
<path d="M28.3782 39.233C29.4794 38.791 30.6118 38.6605 31.8233 38.8442C33.0109 39.0266 34.1331 39.5393 35.1672 40.3572C36.2012 41.1751 36.9638 42.1454 37.4309 43.2669C37.8981 44.3885 38.0297 45.516 37.8709 46.6995C37.6895 47.858 37.2254 48.93 36.4295 49.9366C35.6587 50.9207 34.7108 51.6332 33.6097 52.0752C32.5086 52.5173 31.3761 52.6478 30.1646 52.4641C28.977 52.2817 27.8549 51.769 26.7969 50.9498C25.7628 50.1319 25.0003 49.1616 24.5558 48.0651C24.0886 46.9436 23.957 45.8161 24.1145 44.6563C24.2959 43.4978 24.7613 42.4021 25.5559 41.4192C26.3531 40.3888 27.301 39.6764 28.3782 39.233ZM26.6658 44.8636C26.5813 45.5505 26.6879 46.2475 27.012 46.9084C27.3347 47.5931 27.8297 48.1916 28.5421 48.754C29.2558 49.2927 29.9545 49.6636 30.6897 49.7981C31.4236 49.9563 32.1211 49.8981 32.781 49.6471C33.441 49.3962 33.9903 48.9724 34.4782 48.3547C34.966 47.737 35.2641 47.0853 35.3486 46.3984C35.433 45.7115 35.3252 45.0383 35.0024 44.3536C34.6796 43.6689 34.1846 43.0704 33.4722 42.508C32.7598 41.9456 32.0599 41.5984 31.3247 41.4639C30.5908 41.3057 29.8932 41.3639 29.2333 41.6149C28.5734 41.8659 28.0001 42.2883 27.5123 42.906C27.0483 43.525 26.7502 44.1767 26.6658 44.8636Z" fill="#242F65"/>
<path d="M38.4258 28.1823L43.4409 34.29C44.1155 35.1126 44.7852 35.5774 45.4978 35.6869C46.1865 35.795 46.8929 35.5704 47.568 35.0341C48.2431 34.4979 48.5877 33.8725 48.6256 33.1593C48.6384 32.4686 48.3207 31.6889 47.6687 30.8913L42.6536 24.7835L44.7305 23.106L49.7456 29.2138C50.532 30.1854 51.0319 31.1417 51.1962 32.1041C51.3844 33.0677 51.2885 33.9686 50.9087 34.8066C50.5289 35.6446 49.9379 36.3999 49.1371 37.0487C47.8849 38.0787 46.5689 38.5093 45.2116 38.3656C43.8543 38.2218 42.5789 37.4388 41.3867 35.9926L36.3716 29.8848L38.4258 28.1823Z" fill="#242F65"/>
<path d="M62.2226 14.3333C63.5975 14.5971 64.8038 15.3289 65.7963 16.4783L63.2621 17.7501C62.6665 17.2416 62.0118 16.9445 61.2515 16.8325C60.5138 16.7456 59.7634 16.8964 58.9765 17.2836C58.3367 17.6072 57.8577 18.0585 57.4918 18.635C57.1497 19.2128 56.9949 19.8721 57.0047 20.5879C57.0132 21.3274 57.2367 22.0783 57.6487 22.8869C58.038 23.6705 58.5317 24.2928 59.1311 24.73C59.7065 25.1659 60.3399 25.4142 61.0311 25.4748C61.6984 25.5341 62.352 25.402 62.9919 25.0785C63.7549 24.69 64.3332 24.1724 64.679 23.5233C65.0488 22.8754 65.1822 22.1673 65.1046 21.3765L67.6388 20.1047C67.9901 21.6015 67.8929 22.9791 67.2754 24.2336C66.6805 25.5132 65.6206 26.5296 64.1197 27.2841C62.9633 27.8663 61.8245 28.1156 60.6783 28.0546C59.5321 27.9936 58.4753 27.6036 57.5291 26.9334C56.5604 26.2382 55.7953 25.3154 55.1874 24.1387C54.5808 22.9383 54.2833 21.7781 54.2988 20.5869C54.313 19.4195 54.61 18.3386 55.235 17.3944C55.8373 16.4252 56.7399 15.6627 57.8964 15.0805C59.3986 14.3022 60.8251 14.0443 62.2226 14.3333Z" fill="#242F65"/>
<path d="M82.9981 6.42735L86.3757 19.457L83.7538 20.128L82.2827 14.4711L76.6744 15.9131L78.1454 21.57L75.5247 22.2172L72.1471 9.18759L74.7691 8.51654L76.1409 13.7867L81.7242 12.3673L80.3523 7.09713L82.9981 6.42735Z" fill="#242F65"/>
<path d="M100.051 2.78127L101.927 7.12468L106.572 8.03936L103.007 11.1396L103.547 15.841L99.4844 13.4316L95.1892 15.3963L96.2252 10.7787L93.0089 7.31764L97.7246 6.90104L100.051 2.78127Z" fill="#F3764F"/>
</svg>
